<?xml version="1.0" encoding="utf-8"?>
<!-- Generator: Adobe Illustrator 16.0.0, SVG Export Plug-In . SVG Version: 6.00 Build 0)  -->
<!DOCTYPE svg PUBLIC "-//W3C//DTD SVG 1.1//EN" "http://www.w3.org/Graphics/SVG/1.1/DTD/svg11.dtd">
<svg version="1.1" id="Layer_1" xmlns="http://www.w3.org/2000/svg" xmlns:xlink="http://www.w3.org/1999/xlink" x="0px" y="0px"
	 width="141.248px" height="72.466px" viewBox="0 0 141.248 72.466" enable-background="new 0 0 141.248 72.466"
	 xml:space="preserve">
<rect x="59.094" y="6.435" fill="none" width="75.188" height="24.812"/>
<text transform="matrix(1 0 0 1 59.0942 20.1147)" fill="#FFFFFF" font-family="'OpenSans-Bold'" font-size="18">Foster</text>
<rect x="59.094" y="24.105" fill="none" width="61.654" height="14.286"/>
<text transform="matrix(1 0 0 1 59.0942 37.7847)" fill="#FFFFFF" font-family="'OpenSans-Bold'" font-size="18">Story</text>
<path fill="none" stroke="#FFFFFF" stroke-width="2.8695" stroke-miterlimit="10" d="M11.706,64.605c0,0,40.602-3.008,53.384,0
	c-0.752,7.519,12.03,4.511,15.038,0c13.529-2.003,45.865,0,45.865,0"/>
<path fill="none" stroke="#FFFFFF" stroke-width="1.4949" stroke-miterlimit="10" d="M14.458,61.342c0,0,1.241-8.768,7.962-14.782
	c6.721-6.015,47.795,6.391,47.795,6.391s31.366-9.399,41.821-6.391c10.455,3.008,11.949,12.782,11.949,12.782"/>
<g>
	<path fill="none" stroke="#FFFFFF" stroke-width="1.1981" stroke-miterlimit="10" d="M36.202,19.073
		c-7.841-0.122-13.818,16.759-13.818,16.759s4.269,5.484,10.44,0.532c-1.885,1.549,2.814-0.818,4.833,0.726
		c2.018,1.543,8.857,5.082,10.59,0.059C47.38,34.062,44.041,19.195,36.202,19.073z"/>
	
		<ellipse transform="matrix(0.9026 -0.4306 0.4306 0.9026 -5.9565 11.3609)" fill="none" stroke="#FFFFFF" stroke-width="1.1981" stroke-miterlimit="10" cx="22.123" cy="18.841" rx="4.146" ry="5.375"/>
	
		<ellipse transform="matrix(0.9517 -0.307 0.307 0.9517 -1.9688 10.0395)" fill="none" stroke="#FFFFFF" stroke-width="1.1981" stroke-miterlimit="10" cx="30.923" cy="11.277" rx="4.146" ry="5.374"/>
	
		<ellipse transform="matrix(-0.9517 -0.307 0.307 -0.9517 82.1189 37.0198)" fill="none" stroke="#FFFFFF" stroke-width="1.1981" stroke-miterlimit="10" cx="43.971" cy="12.052" rx="4.146" ry="5.374"/>
	
		<ellipse transform="matrix(-0.9517 -0.307 0.307 -0.9517 92.2874 60.9513)" fill="none" stroke="#FFFFFF" stroke-width="1.1981" stroke-miterlimit="10" cx="50.937" cy="23.218" rx="4.146" ry="5.375"/>
</g>
</svg>
